<svg width="85" height="76" viewBox="0 0 85 76" fill="none" xmlns="http://www.w3.org/2000/svg">
<path d="M72.26 51.7303C69.7935 53.9356 65.7939 53.9356 63.3274 51.7303L52.4377 41.9932C49.9707 39.7878 49.9707 36.2121 52.4377 34.0066L63.3274 24.2698C65.7939 22.0643 69.7935 22.0643 72.26 24.2698L83.1501 34.0066C85.6166 36.2121 85.6166 39.7878 83.1501 41.9932L72.26 51.7303ZM21.6724 51.7303C19.2058 53.9356 15.2065 53.9356 12.7399 51.7303L1.85 41.9932C-0.616662 39.7878 -0.616667 36.2121 1.84999 34.0066L12.7399 24.2698C15.2065 22.0643 19.2058 22.0643 21.6724 24.2698L32.5623 34.0066C35.029 36.2121 35.029 39.7878 32.5623 41.9932L21.6724 51.7303ZM46.9664 74.3457C44.4995 76.5514 40.5003 76.5514 38.0337 74.3457L27.1438 64.609C24.6771 62.4037 24.6771 58.8276 27.1438 56.6222L38.0337 46.8855C40.5003 44.6798 44.4995 44.6798 46.9664 46.8855L57.8562 56.6222C60.3227 58.8276 60.3227 62.4037 57.8562 64.609L46.9664 74.3457ZM46.9664 29.1146C44.4995 31.32 40.5003 31.3201 38.0337 29.1146L27.1438 19.3777C24.6771 17.1722 24.6771 13.5964 27.1438 11.3909L38.0337 1.65412C40.5003 -0.551369 44.4995 -0.551373 46.9664 1.65411L57.8562 11.3909C60.3227 13.5964 60.3227 17.1722 57.8562 19.3777L46.9664 29.1146Z" fill="black"/>
<path d="M18.3778 35.8892C18.3494 35.5767 18.223 35.3338 17.9986 35.1605C17.777 34.9844 17.4602 34.8963 17.0483 34.8963C16.7756 34.8963 16.5483 34.9318 16.3665 35.0028C16.1847 35.0739 16.0483 35.1719 15.9574 35.2969C15.8665 35.419 15.8196 35.5597 15.8168 35.7188C15.8111 35.8494 15.8366 35.9645 15.8935 36.0639C15.9531 36.1634 16.0384 36.2514 16.1491 36.3281C16.2628 36.402 16.3991 36.4673 16.5582 36.5241C16.7173 36.581 16.8963 36.6307 17.0952 36.6733L17.8452 36.8438C18.277 36.9375 18.6577 37.0625 18.9872 37.2188C19.3196 37.375 19.598 37.5611 19.8224 37.777C20.0497 37.9929 20.2216 38.2415 20.3381 38.5227C20.4545 38.804 20.5142 39.1193 20.517 39.4688C20.5142 40.0199 20.375 40.4929 20.0994 40.8878C19.8239 41.2827 19.4276 41.5852 18.9105 41.7955C18.3963 42.0057 17.7756 42.1108 17.0483 42.1108C16.3182 42.1108 15.6818 42.0014 15.1392 41.7827C14.5966 41.5639 14.1747 41.2315 13.8736 40.7855C13.5724 40.3395 13.4176 39.7756 13.4091 39.0938H15.429C15.446 39.375 15.5213 39.6094 15.6548 39.7969C15.7884 39.9844 15.9716 40.1264 16.2045 40.223C16.4403 40.3196 16.7131 40.3679 17.0227 40.3679C17.3068 40.3679 17.5483 40.3295 17.7472 40.2528C17.9489 40.1761 18.1037 40.0696 18.2116 39.9332C18.3196 39.7969 18.375 39.6406 18.3778 39.4645C18.375 39.2997 18.3239 39.1591 18.2244 39.0426C18.125 38.9233 17.9716 38.821 17.7642 38.7358C17.5597 38.6477 17.2983 38.5668 16.9801 38.4929L16.0682 38.2798C15.3125 38.1065 14.7173 37.8267 14.2827 37.4403C13.848 37.0511 13.6321 36.5256 13.6349 35.8636C13.6321 35.3239 13.777 34.8509 14.0696 34.4446C14.3622 34.0384 14.767 33.7216 15.2841 33.4943C15.8011 33.267 16.3906 33.1534 17.0526 33.1534C17.7287 33.1534 18.3153 33.2685 18.8125 33.4986C19.3125 33.7259 19.7003 34.0455 19.9759 34.4574C20.2514 34.8693 20.392 35.3466 20.3977 35.8892H18.3778Z" fill="white"/>
<path d="M64.375 34.9858V33.2727H71.7514V34.9858H69.1051V42H67.0256V34.9858H64.375Z" fill="white"/>
</svg>
