<svg width="127" height="124" viewBox="0 0 127 124" fill="none" xmlns="http://www.w3.org/2000/svg">
<path d="M79.546 67.0041L79.5458 67.004C76.7124 64.235 76.7124 59.7648 79.5458 56.9957L79.5459 56.9956L95.597 41.3063L94.199 39.876L95.5971 41.3062C98.4554 38.5121 103.109 38.5121 105.967 41.3062L105.967 41.3063L122.019 56.9955C122.019 56.9955 122.019 56.9955 122.019 56.9955C124.852 59.7648 124.852 64.2352 122.019 67.0041L105.967 82.6938C103.109 85.4877 98.4554 85.4877 95.597 82.6938L79.546 67.0041ZM47.4543 67.0041L47.4542 67.0041L31.4029 82.6938C31.4029 82.6938 31.4029 82.6938 31.4028 82.6938C28.5443 85.4877 23.8911 85.4877 21.0325 82.6938C21.0325 82.6938 21.0325 82.6938 21.0325 82.6938L4.98117 67.0041L4.98111 67.0041C2.14809 64.2351 2.14803 59.7648 4.98114 56.9956L21.0325 41.3063L19.6345 39.876L21.0325 41.3063C23.8911 38.5121 28.5443 38.5121 31.4028 41.3063L32.8009 39.876L31.4029 41.3063L47.4542 56.9955C50.2873 59.7648 50.2873 64.2351 47.4543 67.0041ZM58.3149 119.135L58.3148 119.135L42.2634 103.446L40.8654 104.876L42.2634 103.446C39.4304 100.677 39.4304 96.2059 42.2634 93.4369L40.8654 92.0066L42.2634 93.4369L58.3148 77.7478L58.3149 77.7477C61.1734 74.9533 65.8264 74.9532 68.6855 77.7478L84.7366 93.4369C87.5695 96.2058 87.5695 100.677 84.7366 103.446L68.6855 119.135C65.8264 121.929 61.1734 121.929 58.3149 119.135ZM68.6856 46.2522C68.6855 46.2523 68.6855 46.2523 68.6855 46.2523C65.8264 49.0465 61.1733 49.0464 58.3148 46.2523L42.2634 30.563C39.4304 27.7939 39.4303 23.3234 42.2634 20.5542L58.3148 4.8649C61.1733 2.07086 65.8264 2.07072 68.6855 4.86488C68.6855 4.86492 68.6855 4.86495 68.6856 4.86498L84.7366 20.5542C87.5695 23.3234 87.5695 27.7939 84.7365 30.5631L68.6856 46.2522Z" stroke="black" stroke-width="4"/>
</svg>
